# File created by Blade
# Date/Time:  Mon Sep 29 17:58:21 2014
# Frame Rate: 120.000 fps
#------------------------------------------------------
:FULLY-SPECIFIED
:DEGREES
2645
root 0.147409 3.471552 -8.324121 -27.332051 -5.084778 3.304674
Spine 40.192114 -44.234979 -18.997895
Head -103.861079 -57.440014 80.330112
LeftShoulder 18.945469 -7.374846 20.524544
LeftArm 32.290854 30.595877 -40.806526
LeftForeArm 7.507206 -0.000000 18.102058
LeftHand -32.823048 -0.000000 -11.084690
LeftHandThumb1 -26.253704 0.000000 33.147579
RightShoulder -16.707268 19.770577 -28.028221
RightArm -6.155817 -38.208298 93.913797
RightForeArm 6.106842 -0.000000 9.242032
RightHand -17.160038 -0.000000 -52.188614
RightHandThumb1 -24.326973 -0.000000 -32.862282
LeftUpLeg -63.374257 14.721102 -14.342579
LeftLeg 4.973815 -0.000000 -0.000000
LeftFoot 33.430447 -0.818939 -9.686248
LeftToeBase 17.096791 -0.000000 -0.000000
RightUpLeg -93.729038 34.648706 34.697745
RightLeg 120.592071 -0.000000 -0.000000
RightFoot 6.283003 -8.920312 -0.409903
RightToeBase 4.116221 -0.000000 -0.000000
2646
root 0.148292 3.469535 -8.326316 -27.347127 -5.084164 3.284994
Spine 40.161805 -44.208113 -18.966180
Head -103.896938 -57.404427 80.324007
LeftShoulder 18.958043 -7.417674 20.535134
LeftArm 32.312033 30.649582 -40.798035
LeftForeArm 7.584154 -0.000000 18.133769
LeftHand -32.798876 -0.000000 -11.096213
LeftHandThumb1 -26.253704 0.000000 33.147579
RightShoulder -16.715899 19.775411 -28.060875
RightArm -6.185747 -38.198414 93.957453
RightForeArm 6.121388 -0.000000 9.206468
RightHand -17.136599 -0.000000 -52.161730
RightHandThumb1 -24.326973 -0.000000 -32.862282
LeftUpLeg -63.351245 14.721560 -14.332535
LeftLeg 4.949689 -0.000000 -0.000000
LeftFoot 33.414598 -0.753206 -9.743431
LeftToeBase 17.072000 -0.000000 -0.000000
RightUpLeg -93.738633 34.650127 34.688394
RightLeg 120.587548 -0.000000 -0.000000
RightFoot 6.292491 -8.907638 -0.415146
RightToeBase 4.091156 -0.000000 -0.000000
2647
root 0.147865 3.468604 -8.328378 -27.365321 -5.086776 3.258573
Spine 40.146623 -44.176050 -18.938892
Head -103.890358 -57.360798 80.293355
LeftShoulder 18.976927 -7.433323 20.571003
LeftArm 32.323103 30.641793 -40.834277
LeftForeArm 7.655678 0.000000 18.176528
LeftHand -32.770538 -0.000000 -10.904789
LeftHandThumb1 -26.253704 0.000000 33.147579
RightShoulder -16.698591 19.777433 -28.061746
RightArm -6.225774 -38.164657 93.985295
RightForeArm 6.142329 -0.000000 9.215517
RightHand -17.247797 -0.000000 -52.309514
RightHandThumb1 -24.326973 -0.000000 -32.862282
LeftUpLeg -63.328899 14.753693 -14.341740
LeftLeg 4.868185 -0.000000 -0.000000
LeftFoot 33.576982 -0.826530 -9.797232
LeftToeBase 16.999004 -0.000000 -0.000000
RightUpLeg -93.737835 34.653638 34.696555
RightLeg 120.575536 -0.000000 -0.000000
RightFoot 6.304465 -8.927177 -0.380391
RightToeBase 4.063535 -0.000000 -0.000000
2648
root 0.149495 3.467799 -8.329884 -27.379440 -5.083696 3.242655
Spine 40.122599 -44.156076 -18.911304
Head -103.845522 -57.307161 80.204094
LeftShoulder 19.004945 -7.451581 20.574346
LeftArm 32.316748 30.640657 -40.844812
LeftForeArm 7.726990 0.000000 18.224173
LeftHand -32.735692 -0.000000 -11.015778
LeftHandThumb1 -26.253704 0.000000 33.147579
RightShoulder -16.687789 19.760939 -28.064003
RightArm -6.226335 -38.108233 93.976430
RightForeArm 6.124080 -0.000000 9.200036
RightHand -17.132891 0.000000 -52.261477
RightHandThumb1 -24.326973 -0.000000 -32.862282
LeftUpLeg -63.294071 14.738929 -14.307366
LeftLeg 4.835127 -0.000000 -0.000000
LeftFoot 33.542655 -0.834689 -9.745613
LeftToeBase 17.114954 -0.000000 -0.000000
RightUpLeg -93.737805 34.655011 34.700290
RightLeg 120.572093 -0.000000 -0.000000
RightFoot 6.327195 -8.943763 -0.429261
RightToeBase 4.059429 -0.000000 -0.000000
2649
root 0.151083 3.467086 -8.331464 -27.396008 -5.077697 3.224737
Spine 40.098519 -44.128852 -18.881681
Head -103.827101 -57.272346 80.151791
LeftShoulder 19.005923 -7.499870 20.532672
LeftArm 32.401217 30.862073 -40.661046
LeftForeArm 7.742048 -0.000000 18.287588
LeftHand -32.692173 -0.000000 -10.843410
LeftHandThumb1 -26.253704 0.000000 33.147579
RightShoulder -16.688684 19.767132 -28.079154
RightArm -6.286138 -38.097722 94.009608
RightForeArm 6.142701 -0.000000 9.243745
RightHand -17.276768 0.000000 -52.356867
RightHandThumb1 -24.326973 -0.000000 -32.862282
LeftUpLeg -63.246407 14.687131 -14.227646
LeftLeg 4.857927 -0.000000 -0.000000
LeftFoot 33.379565 -0.621323 -9.861587
LeftToeBase 17.115119 -0.000000 -0.000000
RightUpLeg -93.742115 34.643121 34.700848
RightLeg 120.569155 -0.000000 -0.000000
RightFoot 6.346691 -8.944538 -0.432353
RightToeBase 4.042359 -0.000000 -0.000000
2650
root 0.151882 3.466922 -8.332652 -27.407095 -5.076957 3.205392
Spine 40.069500 -44.108989 -18.849063
Head -103.803653 -57.228036 80.107160
LeftShoulder 18.995212 -7.520736 20.464980
LeftArm 32.504921 31.000256 -40.477889
LeftForeArm 7.770648 -0.000000 18.320597
LeftHand -32.622815 -0.000000 -10.835161
LeftHandThumb1 -26.253704 0.000000 33.147579
RightShoulder -16.674971 19.754880 -28.075592
RightArm -6.306948 -38.079099 93.999856
RightForeArm 6.138126 -0.000000 9.250246
RightHand -17.149470 -0.000000 -52.291257
RightHandThumb1 -24.326973 -0.000000 -32.862282
LeftUpLeg -63.215823 14.684698 -14.202242
LeftLeg 4.781384 -0.000000 -0.000000
LeftFoot 33.515134 -0.635238 -9.876840
LeftToeBase 17.085897 -0.000000 -0.000000
RightUpLeg -93.742530 34.629330 34.702943
RightLeg 120.567201 -0.000000 -0.000000
RightFoot 6.341699 -8.912081 -0.434418
RightToeBase 4.040593 -0.000000 -0.000000
2651
root 0.153538 3.466491 -8.333467 -27.420230 -5.064989 3.188810
Spine 40.048386 -44.084863 -18.823867
Head -103.831970 -57.206886 80.142690
LeftShoulder 18.998936 -7.564724 20.411593
LeftArm 32.576200 31.083206 -40.361360
LeftForeArm 7.830995 -0.000000 18.352815
LeftHand -32.557317 -0.000000 -10.882605
LeftHandThumb1 -26.253704 0.000000 33.147579
RightShoulder -16.670582 19.736616 -28.077723
RightArm -6.326643 -38.063276 94.000132
RightForeArm 6.160709 -0.000000 9.262808
RightHand -17.142190 -0.000000 -52.272651
RightHandThumb1 -24.326973 -0.000000 -32.862282
LeftUpLeg -63.173479 14.627579 -14.128061
LeftLeg 4.806810 -0.000000 -0.000000
LeftFoot 33.349767 -0.522454 -9.855064
LeftToeBase 17.196252 -0.000000 -0.000000
RightUpLeg -93.745829 34.602797 34.707188
RightLeg 120.571125 -0.000000 -0.000000
RightFoot 6.349305 -8.895225 -0.456637
RightToeBase 4.039922 -0.000000 -0.000000
